<?xml version="1.0" encoding="UTF-8"?>
<svg id="Layer_1" data-name="Layer 1" xmlns="http://www.w3.org/2000/svg" viewBox="0 0 1024 743.1">
  <g>
    <path d="M0,645.57V88.12c1.39-.68,3.08-1.41,5.14-1.94l141.95-35.95v636.74S0,645.57,0,645.57Z"/>
    <polygon points="175.97 695.44 175.94 42.85 320.85 6.13 342.81 .37 342.8 742.21 175.97 695.44"/>
  </g>
  <path d="M548.15,38.27L371.98,0v743.1s69.32-14.59,69.32-14.59l582.69-120.98V141.08l-475.85-102.81ZM529,334.59v289.25c0,23.59-33.99,24.01-33.99,0V124.65c0-23.59,33.99-24.01,33.99,0v209.94ZM714.98,378.45v207.47c0,23.59-33.63,24.11-33.63.1,0-.23-.36-207.57-.36-207.57v-212.94c0-23.59,33.99-24.01,33.99,0v212.94ZM900.97,345.95v201.06c0,23.59-33.98,24.01-33.98,0,0-3.75,0,12.81-.01-201.06v-140.48c0-23.59,33.99-24.01,33.99,0v140.48Z"/>
</svg>